<?xml version="1.0" encoding="utf-8"?>
<!-- Generator: Adobe Illustrator 25.4.0, SVG Export Plug-In . SVG Version: 6.00 Build 0)  -->
<svg version="1.1" id="Ebene_1" xmlns="http://www.w3.org/2000/svg" xmlns:xlink="http://www.w3.org/1999/xlink" x="0px" y="0px"
	 viewBox="0 0 1080 1080" style="enable-background:new 0 0 1080 1080;" xml:space="preserve">
<style type="text/css">
	.st0{fill:#2A6774;}
</style>
<g>
	<path class="st0" d="M971.37,292.32H100.01V120.71h858.8c6.94,0,12.56,5.62,12.56,12.56V292.32z"/>
	<path class="st0" d="M100.01,342.41v464.84c0,103.95,84.27,188.21,188.21,188.21h683.14V342.41H100.01z M297.16,907.43h-8.67
		c-48.81,0-88.38-39.57-88.38-88.38v-8.67h97.05V907.43z M297.16,717.46h-97.05v-97.05h97.05V717.46z M297.16,527.48h-97.05v-97.05
		h97.05V527.48z M491,907.43h-97.05v-97.05H491V907.43z M491,717.46h-97.05v-97.05H491V717.46z M491,527.48h-97.05v-97.05H491
		V527.48z M684.84,717.46H587.8v-97.05h97.05V717.46z M684.84,527.48H587.8v-97.05h97.05V527.48z M878.69,717.46h-97.05v-97.05
		h97.05V717.46z M878.69,527.48h-97.05v-97.05h97.05V527.48z"/>
</g>
</svg>
