<?xml version="1.0" encoding="utf-8"?>
<!-- Generator: Adobe Illustrator 25.4.0, SVG Export Plug-In . SVG Version: 6.00 Build 0)  -->
<svg version="1.1" id="Ebene_1" xmlns="http://www.w3.org/2000/svg" xmlns:xlink="http://www.w3.org/1999/xlink" x="0px" y="0px"
	 viewBox="0 0 841.89 595.28" style="enable-background:new 0 0 841.89 595.28;" xml:space="preserve">
<style type="text/css">
	.st0{fill:#003642;}
	.st1{fill:#92D3BB;}
	.st2{fill:#006670;}
</style>
<g>
	<g>
		<path class="st0" d="M55.18,185.44c-0.43-0.43-0.65-0.98-0.65-1.64v-65.02c0-0.73,0.21-1.31,0.65-1.74
			c0.43-0.43,0.98-0.65,1.64-0.65h22.6c10.02,0,17.26,2.24,21.71,6.72c4.45,4.48,6.77,11.24,6.97,20.26c0.07,1.93,0.1,4.51,0.1,7.77
			c0,3.25-0.03,5.87-0.1,7.87c-0.2,6.31-1.25,11.43-3.14,15.38c-1.89,3.95-4.86,6.89-8.91,8.81c-4.05,1.93-9.43,2.89-16.13,2.89
			h-23.1C56.16,186.09,55.61,185.87,55.18,185.44z M79.42,177.63c4.58,0,8.21-0.63,10.9-1.89c2.69-1.26,4.64-3.27,5.87-6.02
			c1.23-2.75,1.91-6.46,2.04-11.1c0.13-3.98,0.2-6.47,0.2-7.47c0-1.06-0.07-3.52-0.2-7.37c-0.13-6.57-1.69-11.37-4.68-14.39
			c-2.99-3.02-7.87-4.53-14.64-4.53H64.29v52.77H79.42z"/>
		<path class="st0" d="M155.84,180.26c-4.75-4.55-7.25-11.4-7.52-20.56c-0.07-1.99-0.1-4.81-0.1-8.46c0-3.65,0.03-6.44,0.1-8.36
			c0.26-8.96,2.85-15.78,7.77-20.46c4.91-4.68,11.55-7.02,19.91-7.02c8.3,0,14.9,2.34,19.81,7.02c4.91,4.68,7.5,11.5,7.77,20.46
			c0.13,3.85,0.2,6.64,0.2,8.36c0,1.66-0.07,4.48-0.2,8.46c-0.27,9.16-2.77,16.02-7.52,20.56c-4.75,4.55-11.44,6.82-20.06,6.82
			C167.31,187.08,160.58,184.81,155.84,180.26z M188.55,173.84c3.12-3.19,4.81-8.06,5.08-14.64c0.13-3.98,0.2-6.64,0.2-7.97
			c0-1.46-0.07-4.12-0.2-7.97c-0.27-6.57-1.98-11.45-5.13-14.64c-3.15-3.19-7.32-4.78-12.5-4.78c-5.24,0-9.44,1.59-12.59,4.78
			c-3.15,3.19-4.86,8.07-5.13,14.64c-0.07,1.93-0.1,4.58-0.1,7.97c0,3.32,0.03,5.97,0.1,7.97c0.26,6.57,1.97,11.45,5.13,14.64
			c3.15,3.19,7.35,4.78,12.59,4.78S185.43,177.03,188.55,173.84z"/>
		<path class="st0" d="M253.87,183.4l-12.84-63.92c-0.07-0.33-0.1-0.7-0.1-1.1c0-0.53,0.2-1,0.6-1.39c0.4-0.4,0.86-0.6,1.39-0.6
			h5.18c1.39,0,2.19,0.56,2.39,1.69l10.16,51.38l10.75-35.25c0.6-1.59,1.66-2.39,3.19-2.39h3.68c0.86,0,1.54,0.23,2.04,0.7
			c0.5,0.47,0.85,1.03,1.05,1.69l10.85,35.25l10.06-51.38c0.2-1.13,1.03-1.69,2.49-1.69h5.18c0.53,0,1,0.2,1.39,0.6
			c0.4,0.4,0.6,0.86,0.6,1.39l-0.1,1.1l-12.84,63.92c-0.4,1.79-1.43,2.69-3.09,2.69H292c-1.73,0-2.82-0.83-3.29-2.49l-12.35-37.94
			l-12.25,37.94c-0.53,1.66-1.63,2.49-3.29,2.49h-3.88C255.23,186.09,254.2,185.19,253.87,183.4z"/>
		<path class="st0" d="M353.39,185.44c-0.43-0.43-0.65-0.98-0.65-1.64v-65.02c0-0.73,0.21-1.31,0.65-1.74s0.98-0.65,1.64-0.65h4.58
			c1.19,0,2.02,0.47,2.49,1.39l33.06,50.78v-49.79c0-0.73,0.21-1.31,0.65-1.74s0.98-0.65,1.64-0.65h4.78c0.73,0,1.31,0.22,1.74,0.65
			c0.43,0.43,0.65,1.01,0.65,1.74v64.92c0,0.66-0.22,1.23-0.65,1.69c-0.43,0.47-0.98,0.7-1.64,0.7h-4.78c-1,0-1.79-0.46-2.39-1.39
			l-32.96-50.28v49.39c0,0.66-0.23,1.21-0.7,1.64c-0.47,0.43-1.03,0.65-1.69,0.65h-4.78C354.37,186.09,353.82,185.87,353.39,185.44z
			"/>
		<path class="st0" d="M465.6,185.44c-0.43-0.43-0.65-0.98-0.65-1.64v-58.55h-19.12c-0.66,0-1.21-0.21-1.64-0.65
			c-0.43-0.43-0.65-0.98-0.65-1.64v-4.18c0-0.66,0.21-1.23,0.65-1.69c0.43-0.46,0.98-0.7,1.64-0.7h47.99c0.73,0,1.31,0.22,1.74,0.65
			c0.43,0.43,0.65,1.01,0.65,1.74v4.18c0,0.66-0.23,1.21-0.7,1.64c-0.47,0.43-1.03,0.65-1.69,0.65h-19.02v58.55
			c0,0.66-0.23,1.21-0.7,1.64c-0.47,0.43-1.03,0.65-1.69,0.65h-5.18C466.58,186.09,466.03,185.87,465.6,185.44z"/>
		<path class="st0" d="M538.59,180.26c-4.75-4.55-7.25-11.4-7.52-20.56c-0.07-1.99-0.1-4.81-0.1-8.46c0-3.65,0.03-6.44,0.1-8.36
			c0.26-8.96,2.85-15.78,7.77-20.46c4.91-4.68,11.55-7.02,19.91-7.02c8.3,0,14.9,2.34,19.81,7.02c4.91,4.68,7.5,11.5,7.77,20.46
			c0.13,3.85,0.2,6.64,0.2,8.36c0,1.66-0.07,4.48-0.2,8.46c-0.27,9.16-2.77,16.02-7.52,20.56c-4.75,4.55-11.44,6.82-20.06,6.82
			C550.05,187.08,543.33,184.81,538.59,180.26z M571.29,173.84c3.12-3.19,4.81-8.06,5.08-14.64c0.13-3.98,0.2-6.64,0.2-7.97
			c0-1.46-0.07-4.12-0.2-7.97c-0.27-6.57-1.98-11.45-5.13-14.64c-3.15-3.19-7.32-4.78-12.5-4.78c-5.24,0-9.44,1.59-12.59,4.78
			c-3.15,3.19-4.86,8.07-5.13,14.64c-0.07,1.93-0.1,4.58-0.1,7.97c0,3.32,0.03,5.97,0.1,7.97c0.26,6.57,1.97,11.45,5.13,14.64
			c3.15,3.19,7.35,4.78,12.59,4.78S568.17,177.03,571.29,173.84z"/>
		<path class="st0" d="M636.61,183.4l-12.85-63.92c-0.07-0.33-0.1-0.7-0.1-1.1c0-0.53,0.2-1,0.6-1.39c0.4-0.4,0.86-0.6,1.39-0.6
			h5.18c1.39,0,2.19,0.56,2.39,1.69l10.16,51.38l10.75-35.25c0.6-1.59,1.66-2.39,3.19-2.39h3.68c0.86,0,1.54,0.23,2.04,0.7
			c0.5,0.47,0.85,1.03,1.04,1.69l10.85,35.25L685,118.08c0.2-1.13,1.03-1.69,2.49-1.69h5.18c0.53,0,1,0.2,1.39,0.6
			c0.4,0.4,0.6,0.86,0.6,1.39l-0.1,1.1l-12.85,63.92c-0.4,1.79-1.43,2.69-3.09,2.69h-3.88c-1.73,0-2.82-0.83-3.29-2.49l-12.35-37.94
			l-12.25,37.94c-0.53,1.66-1.63,2.49-3.29,2.49h-3.88C637.97,186.09,636.94,185.19,636.61,183.4z"/>
		<path class="st0" d="M736.13,185.44c-0.43-0.43-0.65-0.98-0.65-1.64v-65.02c0-0.73,0.21-1.31,0.65-1.74
			c0.43-0.43,0.98-0.65,1.64-0.65h4.58c1.19,0,2.02,0.47,2.49,1.39l33.06,50.78v-49.79c0-0.73,0.21-1.31,0.65-1.74
			c0.43-0.43,0.98-0.65,1.64-0.65h4.78c0.73,0,1.31,0.22,1.74,0.65c0.43,0.43,0.65,1.01,0.65,1.74v64.92c0,0.66-0.22,1.23-0.65,1.69
			c-0.43,0.47-0.98,0.7-1.64,0.7h-4.78c-1,0-1.79-0.46-2.39-1.39l-32.96-50.28v49.39c0,0.66-0.23,1.21-0.7,1.64
			c-0.47,0.43-1.03,0.65-1.69,0.65h-4.78C737.11,186.09,736.56,185.87,736.13,185.44z"/>
	</g>
	<g>
		<path class="st1" d="M599.78,479.88L599.78,479.88l-170.08,0v-85.04h85.04C561.7,394.84,599.78,432.92,599.78,479.88z"/>
		
			<rect x="284.63" y="352.32" transform="matrix(6.123234e-17 -1 1 6.123234e-17 -110.2096 764.5148)" class="st1" width="85.04" height="170.08"/>
		
			<rect x="659.8" y="352.32" transform="matrix(6.123234e-17 -1 1 6.123234e-17 264.9596 1139.684)" class="st1" width="85.04" height="170.08"/>
		<path class="st1" d="M54.53,394.84L54.53,394.84c0,46.97,38.07,85.04,85.04,85.04l0,0v-85.04H54.53z"/>
	</g>
	<g>
		<path class="st0" d="M599.78,309.8L599.78,309.8l-170.08,0v-85.04h85.04C561.7,224.76,599.78,262.84,599.78,309.8z"/>
		<path class="st0" d="M412.19,309.8H242.11v0c0-46.97,38.07-85.04,85.04-85.04h0C374.12,224.76,412.19,262.84,412.19,309.8
			L412.19,309.8z"/>
		<path class="st0" d="M702.32,309.8h-85.04v-85.04h0C664.25,224.76,702.32,262.84,702.32,309.8L702.32,309.8z"/>
		<path class="st0" d="M787.36,309.8h-85.04v0c0-46.97,38.07-85.04,85.04-85.04h0V309.8z"/>
		
			<rect x="97.05" y="182.24" transform="matrix(6.123234e-17 -1 1 6.123234e-17 -127.7154 406.8515)" class="st0" width="85.04" height="170.08"/>
	</g>
	<g>
		<path class="st2" d="M429.7,309.8v85.04h85.04c46.96,0,85.04-38.07,85.04-85.04v0c0,0,0,0,0,0H429.7z"/>
		
			<rect x="284.63" y="267.28" transform="matrix(6.123234e-17 -1 1 6.123234e-17 -25.1702 679.4754)" class="st2" width="85.04" height="170.08"/>
		
			<rect x="659.8" y="267.28" transform="matrix(6.123234e-17 -1 1 6.123234e-17 349.999 1054.6445)" class="st2" width="85.04" height="170.08"/>
		
			<rect x="75.79" y="288.54" transform="matrix(6.123234e-17 -1 1 6.123234e-17 -234.0146 470.631)" class="st2" width="85.04" height="127.56"/>
	</g>
</g>
</svg>
